<svg width="1123" height="268" viewBox="0 0 1123 268" fill="none" xmlns="http://www.w3.org/2000/svg">
<g clip-path="url(#clip0_35_26)">
<path d="M59.7021 55.3669L80.432 19.4618H205.225L184.496 55.3669H59.7021Z" fill="#87C232" stroke="#87C232" stroke-linejoin="round"/>
<path d="M61.7725 51.8005L41.0426 87.7056L103.439 195.78L124.169 159.875L61.7725 51.8005Z" fill="#87C232" stroke="#87C232" stroke-linejoin="round"/>
<path d="M239.97 107.34L260.7 143.245L198.303 251.319L177.573 215.414L239.97 107.34Z" fill="#87C232" stroke="#87C232" stroke-linejoin="round"/>
<path d="M242.022 110.919L221.293 75.0135L96.4992 75.0136L117.229 110.919L242.022 110.919Z" fill="#87C232" stroke="#87C232" stroke-linejoin="round"/>
<path d="M103.856 238.912L62.3968 238.912L6.53721e-05 130.838L41.4597 130.838L103.856 238.912Z" fill="#87C232" stroke="#87C232" stroke-linejoin="round"/>
<path d="M99.7334 238.901L141.193 238.901L203.59 130.826L162.13 130.826L99.7334 238.901Z" fill="#87C232" stroke="#87C232" stroke-linejoin="round"/>
<path d="M402.58 195.8C366.58 195.8 348.22 179.96 348.22 154.58V153.5H367.66V156.38C367.66 170.78 376.12 177.98 402.58 177.98C425.62 177.98 433.72 172.94 433.72 161.6C433.72 151.16 427.6 147.2 412.3 144.32L382.78 139.46C362.44 135.86 348.04 126.5 348.04 106.7C348.04 89.24 362.44 71.6 399.88 71.6C435.16 71.6 451.18 89.24 451.18 112.82V113.9H431.92V111.56C431.92 96.8 423.1 89.42 398.08 89.42C376.12 89.42 367.48 94.82 367.48 105.62C367.48 116.06 373.6 119.48 387.82 122.54L417.16 127.58C441.28 131.9 453.16 142.88 453.16 160.52C453.16 178.88 438.22 195.8 402.58 195.8ZM495.401 194H475.961V73.4H495.401V124.88H531.941L567.221 73.4H590.261L548.141 132.98L590.081 194H567.041L532.301 143.6H495.401V194ZM629.03 194H609.59V73.4H672.23C699.59 73.4 716.51 86.36 716.51 108.86C716.51 128.84 703.37 141.08 680.69 142.34V143.6C690.05 146.12 694.37 151.52 698.69 159.08L718.85 194H696.53L677.27 160.7C671.87 151.16 666.29 147.2 651.17 147.2H629.03V194ZM629.03 90.86V132.26H672.05C688.25 132.26 696.35 126.68 696.35 111.56C696.35 96.8 688.25 90.86 672.05 90.86H629.03ZM752.127 194H730.527L784.347 73.4H811.707L865.527 194H843.567L829.707 162.68H765.987L752.127 194ZM790.107 108.5L773.727 145.22H821.967L805.587 108.5L798.567 91.4H797.127L790.107 108.5ZM902.967 194H883.527V73.4H942.567C969.387 73.4 987.747 88.7 987.747 115.52C987.747 142.16 969.387 157.64 942.567 157.64H902.967V194ZM940.767 90.86H902.967V140.18H940.767C958.947 140.18 968.307 133.34 968.307 115.52C968.307 97.7 958.947 90.86 940.767 90.86ZM1070.29 194H1051.03V152.42L998.107 73.4H1021.87L1050.31 116.24L1060.39 131.54H1061.83L1071.73 116.24L1099.99 73.4H1123.93L1070.29 152.78V194Z" fill="#87C232"/>
</g>
<defs>
<clipPath id="clip0_35_26">
<rect width="1123" height="268" fill="white"/>
</clipPath>
</defs>
</svg>
