<svg width="32" height="32" viewBox="0 0 32 32" fill="none" xmlns="http://www.w3.org/2000/svg">
  <rect width="32" height="32" fill="#1a1a1a"/>
  <g transform="translate(2, 2) scale(0.056)">
    <path d="M149 158.301L174 115H324.5L299.5 158.301H149Z" fill="#87C232" stroke="#87C232" stroke-linejoin="round"/>
    <path d="M151.5 154L126.5 197.301L201.75 327.638L226.75 284.337L151.5 154Z" fill="#87C232" stroke="#87C232" stroke-linejoin="round"/>
    <path d="M366.4 220.979L391.4 264.281L316.15 394.617L291.15 351.316L366.4 220.979Z" fill="#87C232" stroke="#87C232" stroke-linejoin="round"/>
    <path d="M368.875 225.295L343.875 181.994L193.375 181.994L218.375 225.295L368.875 225.295Z" fill="#87C232" stroke="#87C232" stroke-linejoin="round"/>
    <path d="M202.25 379.656L152.25 379.656L77 249.319L127 249.319L202.25 379.656Z" fill="#87C232" stroke="#87C232" stroke-linejoin="round"/>
    <path d="M197.275 379.641L247.275 379.641L322.525 249.305L272.525 249.305L197.275 379.641Z" fill="#87C232" stroke="#87C232" stroke-linejoin="round"/>
  </g>
</svg>
